<svg width="382" height="445" viewBox="0 0 382 445" fill="none" xmlns="http://www.w3.org/2000/svg">
<path d="M357.445 79.8507C349.636 112.263 331.664 136.324 308.833 156.606C299.004 158.873 290.694 164.671 284.309 173.405C283.24 174.97 282.314 176.629 281.541 178.36C276.77 181.716 271.8 185.161 266.845 188.517C266.452 188.805 265.999 189.001 265.52 189.089C265.041 189.177 264.548 189.156 264.078 189.026C217.955 175.839 218.4 150.394 228.142 131.161C228.407 130.736 228.754 130.368 229.164 130.08C229.574 129.792 230.038 129.589 230.528 129.483C330.074 111.762 343.505 -6.73553 287.927 -74.4233C287.487 -74.9837 287.24 -75.672 287.226 -76.3846C287.211 -77.0971 287.428 -77.7952 287.844 -78.3734C288.261 -78.9516 288.854 -79.3787 289.535 -79.5901C290.215 -79.8016 290.946 -79.786 291.617 -79.5456C357.612 -56.6861 372.896 16.1956 357.445 79.8507Z" fill="url(#paint0_linear_58159_14017)"/>
<path d="M364.245 184.659C346.026 162.651 308.913 149.893 289.438 177.103C283.975 184.739 282.042 198.181 284.396 208.259C285.74 214.216 287.084 220.683 292.961 225.216C304.38 234.204 318.32 225.391 309 217.581C284.483 197.258 308.157 173.317 328.308 185.495C343.171 193.226 345.859 223.459 331.664 232.526C294.289 250.915 252.325 219.259 228.221 192.971C220.921 185.081 195.561 145.606 198.003 126.373C207.665 116.129 216.563 105.128 225.295 94.2076C239.903 76.1522 257.199 58.415 269.462 38.6972C279.195 22.9962 279.195 7.79626 275.338 -9.75803C266.44 -51.1581 248.388 -88.4461 226.034 -124.294C202.369 -162.266 174.814 -198.632 142.584 -229.787C128.222 -243.563 112.27 -258.342 94.075 -266.653C87.6492 -269.468 80.7636 -271.085 73.757 -271.426C66.7503 -271.085 59.8647 -269.468 53.439 -266.653C35.2204 -258.342 19.2444 -243.587 4.93033 -229.787C-10.41 -214.906 -24.7175 -198.996 -37.8925 -182.167C-34.1866 -179.919 -31.1252 -176.751 -29.0057 -172.97C-26.8863 -169.188 -25.7809 -164.923 -25.7971 -160.588C-25.7971 -153.853 -28.4661 -147.392 -33.2195 -142.621C-37.9729 -137.85 -44.423 -135.159 -51.1569 -135.136C-57.2027 -135.112 -63.0506 -137.289 -67.61 -141.26C-71.3078 -135.637 -75.0056 -130.013 -78.5285 -124.302C-100.858 -88.4381 -118.83 -51.1263 -127.832 -9.76596C-131.689 7.7883 -131.61 22.9883 -121.868 38.6893C-109.693 58.4229 -92.3972 76.1442 -77.7889 94.1996C-66.8705 107.721 -55.793 121.577 -43.2762 133.754C-105.829 131.488 -174.011 160.965 -206.925 209.428C-261.168 289.206 -179.975 379.236 -95.085 347.738C-90.2183 345.981 -90.2183 339.339 -94.8306 337.072C-156.381 306.847 -155.792 229.583 -83.9201 206.907C-78.9531 205.471 -73.7202 205.212 -68.6359 206.151C-81.9002 216.491 -91.8962 230.084 -94.6636 247.638C-97.7729 266.951 -92.3972 289.293 -79.2124 303.904C-65.6936 319.017 -45.463 326.581 -26.4015 331.87C16.1668 343.801 64.8664 343.459 104.246 365.038C120.787 374.114 132.206 387.969 134.973 406.86C136.405 416.77 137.407 420.636 130.608 428.025C123.808 435.414 125.908 441.125 132.452 444.402C144.794 438.604 156.134 431.724 164.19 422.402C172.761 412.583 177.633 400.077 177.963 387.047C178.464 374.026 176.031 360.592 171.498 347.571C168.341 338.552 164.066 329.964 158.774 322.008C156.428 318.514 153.871 315.167 151.116 311.986L148.27 308.748C147.824 308.271 147.363 307.81 146.902 307.333L143.721 304.382C143.212 303.92 142.727 303.467 142.234 303.006C134.56 296.643 126.075 290.995 117.455 285.396C105.232 277.307 92.8662 269.209 81.1367 260.198C73.0872 254.186 65.4542 247.635 58.2899 240.591C54.7707 237.299 51.4839 233.767 48.453 230.021C43.9918 224.103 39.5544 217.191 39.6657 209.014C39.719 205.017 41.2913 201.189 44.0633 198.308C46.0991 195.922 48.7313 194.459 51.3714 193.106C52.0951 192.717 52.8108 192.311 53.5265 191.897C53.4072 191.977 53.2959 192.065 53.1766 192.136L53.3118 192.064C47.284 196.041 41.9003 202.134 42.7433 208.982C43.0216 215.775 47.6021 221.78 51.8486 227.316C54.2342 230.188 56.8187 232.956 59.4827 235.644C67.0771 243.057 75.6417 249.619 84.2778 255.911C96.2062 264.31 108.675 271.818 121.232 279.398C126.496 282.58 131.816 285.913 137.049 289.42C137.844 289.914 138.639 290.383 139.49 290.884C140.421 291.512 141.216 292.228 142.107 292.872C143.594 293.906 144.985 295.02 146.385 296.125C147.784 297.231 149.041 298.194 150.361 299.307L153.542 301.908L155.721 304.079C156.317 304.652 156.969 305.137 157.558 305.726C160.436 308.677 163.124 311.763 165.701 314.944C166.941 316.376 168.293 317.681 169.494 319.144C216.412 338.448 268.372 348.112 313.334 330.725C366.765 309.989 405.811 234.793 364.245 184.659ZM-45.463 -87.2689C-47.3527 -87.2579 -49.2032 -87.8082 -50.7798 -88.8503C-52.3564 -89.8923 -53.5881 -91.3792 -54.3189 -93.1222C-55.0498 -94.8653 -55.2467 -96.7861 -54.8848 -98.6413C-54.5229 -100.496 -53.6185 -102.202 -52.2861 -103.543C-50.9538 -104.883 -49.2536 -105.798 -47.401 -106.171C-45.5484 -106.543 -43.6268 -106.358 -41.8799 -105.637C-40.1329 -104.916 -38.6392 -103.693 -37.5882 -102.122C-36.5372 -100.551 -35.9761 -98.7037 -35.976 -96.8136C-35.976 -94.2918 -36.9737 -91.8725 -38.7513 -90.0841C-40.5289 -88.2957 -42.9418 -87.2836 -45.463 -87.2689ZM-20.1033 -107.846C-23.2506 -107.838 -26.3295 -108.764 -28.9502 -110.507C-31.5709 -112.25 -33.6156 -114.732 -34.8255 -117.638C-36.0354 -120.544 -36.356 -123.744 -35.7468 -126.832C-35.1376 -129.921 -33.626 -132.759 -31.4033 -134.988C-29.1806 -137.217 -26.3468 -138.736 -23.2606 -139.353C-20.1743 -139.97 -16.9744 -139.657 -14.0659 -138.454C-11.1574 -137.251 -8.67116 -135.212 -6.92178 -132.595C-5.17241 -129.979 -4.23862 -126.901 -4.23862 -123.753C-4.2386 -119.536 -5.91318 -115.491 -8.89412 -112.508C-11.8751 -109.525 -15.9184 -107.848 -20.1351 -107.846H-20.1033Z" fill="url(#paint1_linear_58159_14017)"/>
<path d="M374.551 51.7496C374.551 51.7496 380.904 48.9043 380.904 45.3944C380.904 41.8845 378.06 39.0392 374.551 39.0392C371.041 39.0392 368.197 41.8845 368.197 45.3944C368.197 48.9043 374.551 51.7496 374.551 51.7496Z" fill="#AC3FE4"/>
<path d="M371.728 90.4533C371.728 90.4533 381.254 86.1871 381.254 80.9245C381.254 75.6619 376.989 71.3958 371.728 71.3958C366.466 71.3958 362.201 75.6619 362.201 80.9245C362.201 86.1871 371.728 90.4533 371.728 90.4533Z" fill="#AC3FE4"/>
<path d="M362.996 122.452C368.258 122.452 372.523 118.186 372.523 112.923C372.523 107.66 368.258 103.394 362.996 103.394C357.734 103.394 353.469 107.66 353.469 112.923C353.469 118.186 357.734 122.452 362.996 122.452Z" fill="#AC3FE4"/>
<path d="M320.412 214.312C325.673 214.312 329.939 210.045 329.939 204.783C329.939 199.52 325.673 195.254 320.412 195.254C315.15 195.254 310.885 199.52 310.885 204.783C310.885 210.045 315.15 214.312 320.412 214.312Z" fill="#AC3FE4"/>
<path d="M119.387 406.701C122.896 406.701 125.741 403.855 125.741 400.346C125.741 396.836 122.896 393.99 119.387 393.99C115.878 393.99 113.033 396.836 113.033 400.346C113.033 403.855 115.878 406.701 119.387 406.701Z" fill="#A076F9"/>
<path d="M95.3633 386.888C100.625 386.888 104.89 382.621 104.89 377.359C104.89 372.096 100.625 367.83 95.3633 367.83C90.1017 367.83 85.8364 372.096 85.8364 377.359C85.8364 382.621 90.1017 386.888 95.3633 386.888Z" fill="#A076F9"/>
<path d="M-89.4549 328.959C-85.9457 328.959 -83.101 326.114 -83.101 322.604C-83.101 319.094 -85.9457 316.249 -89.4549 316.249C-92.964 316.249 -95.8087 319.094 -95.8087 322.604C-95.8087 326.114 -92.964 328.959 -89.4549 328.959Z" fill="#A076F9"/>
<path d="M-112.325 304C-107.064 304 -102.799 299.734 -102.799 294.471C-102.799 289.208 -107.064 284.942 -112.325 284.942C-117.587 284.942 -121.852 289.208 -121.852 294.471C-121.852 299.734 -117.587 304 -112.325 304Z" fill="#A076F9"/>
<path d="M73.7411 90.7396C78.25 90.159 81.9478 89.5784 85.415 99.6082C88.8821 109.638 95.2519 127.757 109.709 146.855C124.166 165.952 155.403 171.154 183.172 165.944C210.941 160.734 220.19 130.644 221.923 112.923C223.657 95.2018 230.599 86.6752 236.961 77.9975C243.323 69.3198 238.694 65.2712 216.142 60.0614C193.589 54.8516 136.317 54.2789 118.965 60.0614C101.614 65.8439 73.7411 68.1903 73.7411 68.1903C73.7411 68.1903 45.8605 65.8757 28.5087 60.0853C11.1569 54.2948 -46.1072 54.8834 -68.6677 60.0853C-91.2282 65.2871 -95.8485 69.3436 -89.4867 78.0213C-83.1249 86.699 -76.1826 95.2257 -74.449 112.947C-72.7154 130.668 -63.459 160.766 -35.6977 165.968C-7.93643 171.17 23.3079 165.968 37.7651 146.878C52.2223 127.789 58.5841 109.654 62.0592 99.6321C65.5344 89.6102 69.2242 90.159 73.7411 90.7396Z" fill="#F7288E"/>
<path d="M52.5642 96.3313C49.8764 112.454 43.4987 126.811 33.1687 138.153C31.1754 140.276 29.0731 142.293 26.8705 144.198C25.8686 145.041 24.8586 145.876 23.7692 146.632C19.823 149.645 15.5719 152.237 11.0853 154.363C-13.344 166.198 -49.6141 161.585 -60.954 133.953C-65.8208 121.943 -67.3158 108 -67.4192 95.1541C-67.4192 86.2537 -67.7532 73.8217 -59.1886 68.5323C-52.636 64.5554 -34.0834 63.243 -14.7754 63.5771H-10.6561C-8.8907 63.6646 -7.04578 63.7441 -5.28038 63.7441C13.6937 64.5872 31.5783 66.7665 37.3675 69.3675C44.3416 72.549 48.7869 75.4999 51.1408 79.6201C53.4947 83.7402 53.8286 88.8705 52.5642 96.3313Z" fill="#2F2667"/>
<path d="M212.985 95.1541C212.985 108 211.474 121.943 206.52 133.953C205.338 136.907 203.789 139.7 201.907 142.265C200.253 144.578 198.337 146.691 196.198 148.565C195.18 149.522 194.084 150.392 192.921 151.166C176.802 162.842 152.452 163.096 134.48 154.347C110.719 142.838 97.2876 121.672 93.0889 96.2835C90.568 80.9961 94.5998 75.4522 108.198 69.3198C114.242 66.6393 132.85 64.452 152.357 63.6964C153.788 63.6168 155.299 63.6168 156.723 63.5293C159.578 63.4418 162.52 63.4418 165.375 63.4418C182.87 63.4418 198.878 64.8735 204.834 68.4846C213.438 73.8217 213.104 86.2537 212.985 95.1541Z" fill="#2F2667"/>
<path d="M212.985 95.1541C212.985 108 211.474 121.943 206.52 133.953C205.338 136.907 203.789 139.7 201.907 142.265L165.383 63.5214C182.878 63.5214 198.886 64.953 204.842 68.5641C213.438 73.8217 213.104 86.2537 212.985 95.1541Z" fill="#5C5CA0"/>
<path d="M196.229 148.565C195.212 149.522 194.116 150.392 192.953 151.166L152.397 63.7441C153.828 63.6646 155.339 63.6646 156.763 63.5771L196.229 148.565Z" fill="#5C5CA0"/>
<path d="M27.125 144.786C26.1151 145.582 25.0256 146.21 23.9441 146.886L23.7771 146.632L-14.7754 63.5771H-10.6561L26.9024 144.198L27.125 144.786Z" fill="#5C5CA0"/>
<path d="M52.5642 96.3313C49.8764 112.454 43.4987 126.811 33.1687 138.153L-5.28038 63.7441C13.6937 64.5872 31.5783 66.7665 37.3675 69.3675C44.3416 72.549 48.7869 75.4999 51.1408 79.6201C53.4947 83.7402 53.8286 88.8705 52.5642 96.3313Z" fill="#5C5CA0"/>
<defs>
<linearGradient id="paint0_linear_58159_14017" x1="-224.46" y1="86.4627" x2="381.689" y2="86.4627" gradientUnits="userSpaceOnUse">
<stop stop-color="#A076F9"/>
<stop offset="0.51" stop-color="#A076F9"/>
<stop offset="1" stop-color="#AC3FE4"/>
</linearGradient>
<linearGradient id="paint1_linear_58159_14017" x1="-224.5" y1="86.4843" x2="381.684" y2="86.4843" gradientUnits="userSpaceOnUse">
<stop stop-color="#A076F9"/>
<stop offset="0.51" stop-color="#A076F9"/>
<stop offset="1" stop-color="#AC3FE4"/>
</linearGradient>
</defs>
</svg>
