<svg width="362" height="580" viewBox="0 0 362 580" fill="none" xmlns="http://www.w3.org/2000/svg">
<path d="M582.445 351.851C574.636 384.263 556.664 408.324 533.833 428.606C524.004 430.873 515.694 436.671 509.309 445.405C508.24 446.97 507.314 448.629 506.541 450.36C501.77 453.716 496.8 457.161 491.845 460.517C491.452 460.805 490.999 461.001 490.52 461.089C490.041 461.177 489.548 461.156 489.078 461.026C442.955 447.839 443.4 422.394 453.142 403.161C453.407 402.736 453.754 402.368 454.164 402.08C454.574 401.792 455.038 401.589 455.528 401.483C555.074 383.762 568.505 265.264 512.927 197.577C512.487 197.016 512.24 196.328 512.226 195.615C512.211 194.903 512.428 194.205 512.844 193.627C513.261 193.048 513.854 192.621 514.535 192.41C515.215 192.198 515.946 192.214 516.617 192.454C582.612 215.314 597.896 288.196 582.445 351.851Z" fill="url(#paint0_linear_58159_13611)"/>
<path d="M589.245 456.659C571.026 434.651 533.913 421.893 514.438 449.103C508.975 456.739 507.042 470.181 509.396 480.259C510.74 486.216 512.084 492.683 517.961 497.216C529.38 506.204 543.32 497.391 534 489.581C509.483 469.258 533.157 445.317 553.308 457.495C568.171 465.226 570.859 495.459 556.664 504.526C519.289 522.915 477.325 491.259 453.221 464.971C445.921 457.081 420.561 417.606 423.003 398.373C432.665 388.129 441.563 377.128 450.295 366.208C464.903 348.152 482.199 330.415 494.462 310.697C504.195 294.996 504.195 279.796 500.338 262.242C491.44 220.842 473.388 183.554 451.034 147.706C427.369 109.734 399.814 73.3684 367.584 42.2129C353.222 28.4368 337.27 13.6584 319.075 5.34657C312.649 2.53186 305.764 0.914547 298.757 0.574219C291.75 0.914547 284.865 2.53186 278.439 5.34657C260.22 13.6584 244.244 28.4129 229.93 42.2129C214.59 57.0938 200.283 73.0041 187.107 89.833C190.813 92.0807 193.875 95.2492 195.994 99.0304C198.114 102.812 199.219 107.077 199.203 111.412C199.203 118.147 196.534 124.608 191.78 129.379C187.027 134.15 180.577 136.841 173.843 136.864C167.797 136.888 161.949 134.711 157.39 130.74C153.692 136.363 149.994 141.987 146.472 147.698C124.142 183.562 106.17 220.874 97.1676 262.234C93.3108 279.788 93.3903 294.988 103.132 310.689C115.307 330.423 132.603 348.144 147.211 366.2C158.13 379.721 169.207 393.577 181.724 405.754C119.171 403.488 50.989 432.965 18.0746 481.428C-36.1676 561.206 45.0248 651.236 129.915 619.738C134.782 617.981 134.782 611.339 130.169 609.072C68.6191 578.847 69.2076 501.583 141.08 478.907C146.047 477.471 151.28 477.212 156.364 478.151C143.1 488.491 133.104 502.084 130.336 519.638C127.227 538.951 132.603 561.293 145.788 575.904C159.306 591.017 179.537 598.581 198.598 603.87C241.167 615.801 289.866 615.459 329.246 637.038C345.787 646.114 357.206 659.969 359.973 678.86C361.405 688.77 362.407 692.636 355.608 700.025C348.808 707.414 350.908 713.125 357.452 716.402C369.794 710.604 381.134 703.724 389.19 694.402C397.761 684.583 402.633 672.077 402.963 659.047C403.464 646.026 401.031 632.592 396.498 619.571C393.341 610.552 389.066 601.964 383.774 594.008C381.428 590.514 378.871 587.167 376.116 583.986L373.27 580.748C372.824 580.271 372.363 579.81 371.902 579.333L368.721 576.382C368.212 575.92 367.727 575.467 367.234 575.006C359.56 568.643 351.075 562.995 342.455 557.396C330.232 549.307 317.866 541.209 306.137 532.198C298.087 526.186 290.454 519.635 283.29 512.591C279.771 509.299 276.484 505.767 273.453 502.021C268.992 496.103 264.554 489.191 264.666 481.014C264.719 477.017 266.291 473.189 269.063 470.308C271.099 467.922 273.731 466.459 276.371 465.106C277.095 464.717 277.811 464.311 278.526 463.897C278.407 463.977 278.296 464.065 278.177 464.136L278.312 464.064C272.284 468.041 266.9 474.134 267.743 480.982C268.022 487.775 272.602 493.78 276.849 499.316C279.234 502.188 281.819 504.956 284.483 507.644C292.077 515.057 300.642 521.619 309.278 527.911C321.206 536.31 333.675 543.818 346.232 551.398C351.496 554.58 356.816 557.913 362.049 561.42C362.844 561.914 363.639 562.383 364.49 562.884C365.421 563.512 366.216 564.228 367.107 564.872C368.594 565.906 369.985 567.02 371.385 568.125C372.784 569.231 374.041 570.194 375.361 571.307L378.542 573.908L380.721 576.079C381.317 576.652 381.969 577.137 382.558 577.726C385.436 580.677 388.124 583.763 390.701 586.944C391.941 588.376 393.293 589.681 394.494 591.144C441.412 610.448 493.372 620.112 538.334 602.725C591.765 581.989 630.811 506.793 589.245 456.659ZM179.537 184.731C177.647 184.742 175.797 184.192 174.22 183.15C172.644 182.108 171.412 180.621 170.681 178.878C169.95 177.135 169.753 175.214 170.115 173.359C170.477 171.504 171.382 169.798 172.714 168.457C174.046 167.117 175.746 166.202 177.599 165.829C179.452 165.457 181.373 165.642 183.12 166.363C184.867 167.084 186.361 168.307 187.412 169.878C188.463 171.449 189.024 173.296 189.024 175.186C189.024 177.708 188.026 180.128 186.249 181.916C184.471 183.704 182.058 184.716 179.537 184.731ZM204.897 164.154C201.749 164.162 198.671 163.236 196.05 161.493C193.429 159.75 191.384 157.268 190.175 154.362C188.965 151.456 188.644 148.256 189.253 145.168C189.862 142.079 191.374 139.241 193.597 137.012C195.819 134.783 198.653 133.264 201.739 132.647C204.826 132.03 208.026 132.343 210.934 133.546C213.843 134.749 216.329 136.788 218.078 139.405C219.828 142.021 220.761 145.099 220.761 148.247C220.761 152.464 219.087 156.509 216.106 159.492C213.125 162.475 209.082 164.152 204.865 164.154H204.897Z" fill="url(#paint1_linear_58159_13611)"/>
<path d="M599.551 323.75C599.551 323.75 605.904 320.904 605.904 317.394C605.904 313.885 603.06 311.039 599.551 311.039C596.041 311.039 593.197 313.885 593.197 317.394C593.197 320.904 599.551 323.75 599.551 323.75Z" fill="#AC3FE4"/>
<path d="M596.728 362.453C596.728 362.453 606.254 358.187 606.254 352.925C606.254 347.662 601.989 343.396 596.728 343.396C591.466 343.396 587.201 347.662 587.201 352.925C587.201 358.187 596.728 362.453 596.728 362.453Z" fill="#AC3FE4"/>
<path d="M587.996 394.452C593.258 394.452 597.523 390.186 597.523 384.923C597.523 379.66 593.258 375.394 587.996 375.394C582.734 375.394 578.469 379.66 578.469 384.923C578.469 390.186 582.734 394.452 587.996 394.452Z" fill="#AC3FE4"/>
<path d="M545.412 486.312C550.673 486.312 554.939 482.045 554.939 476.783C554.939 471.52 550.673 467.254 545.412 467.254C540.15 467.254 535.885 471.52 535.885 476.783C535.885 482.045 540.15 486.312 545.412 486.312Z" fill="#AC3FE4"/>
<path d="M344.387 678.701C347.896 678.701 350.741 675.855 350.741 672.346C350.741 668.836 347.896 665.99 344.387 665.99C340.878 665.99 338.033 668.836 338.033 672.346C338.033 675.855 340.878 678.701 344.387 678.701Z" fill="#A076F9"/>
<path d="M320.363 658.888C325.625 658.888 329.89 654.621 329.89 649.359C329.89 644.096 325.625 639.83 320.363 639.83C315.102 639.83 310.836 644.096 310.836 649.359C310.836 654.621 315.102 658.888 320.363 658.888Z" fill="#A076F9"/>
<path d="M135.545 600.959C139.054 600.959 141.899 598.114 141.899 594.604C141.899 591.094 139.054 588.249 135.545 588.249C132.036 588.249 129.191 591.094 129.191 594.604C129.191 598.114 132.036 600.959 135.545 600.959Z" fill="#A076F9"/>
<path d="M112.675 576C117.936 576 122.201 571.734 122.201 566.471C122.201 561.208 117.936 556.942 112.675 556.942C107.413 556.942 103.148 561.208 103.148 566.471C103.148 571.734 107.413 576 112.675 576Z" fill="#A076F9"/>
<path d="M298.741 362.74C303.25 362.159 306.948 361.578 310.415 371.608C313.882 381.638 320.252 399.757 334.709 418.855C349.166 437.952 380.403 443.154 408.172 437.944C435.941 432.734 445.19 402.644 446.923 384.923C448.657 367.202 455.599 358.675 461.961 349.997C468.323 341.32 463.694 337.271 441.142 332.061C418.589 326.852 361.317 326.279 343.965 332.061C326.614 337.844 298.741 340.19 298.741 340.19C298.741 340.19 270.861 337.876 253.509 332.085C236.157 326.295 178.893 326.883 156.332 332.085C133.772 337.287 129.152 341.344 135.513 350.021C141.875 358.699 148.817 367.226 150.551 384.947C152.285 402.668 161.541 432.766 189.302 437.968C217.064 443.17 248.308 437.968 262.765 418.878C277.222 399.789 283.584 381.654 287.059 371.632C290.534 361.61 294.224 362.159 298.741 362.74Z" fill="#F7288E"/>
<path d="M277.564 368.331C274.876 384.454 268.499 398.811 258.169 410.153C256.175 412.276 254.073 414.293 251.871 416.198C250.869 417.041 249.859 417.876 248.769 418.632C244.823 421.645 240.572 424.237 236.085 426.363C211.656 438.198 175.386 433.585 164.046 405.953C159.179 393.943 157.684 380 157.581 367.154C157.581 358.254 157.247 345.822 165.811 340.532C172.364 336.555 190.917 335.243 210.225 335.577H214.344C216.109 335.665 217.954 335.744 219.72 335.744C238.694 336.587 256.578 338.767 262.368 341.367C269.342 344.549 273.787 347.5 276.141 351.62C278.495 355.74 278.829 360.871 277.564 368.331Z" fill="#2F2667"/>
<path d="M437.985 367.154C437.985 380 436.474 393.943 431.52 405.953C430.338 408.907 428.789 411.7 426.907 414.265C425.253 416.578 423.337 418.691 421.198 420.565C420.18 421.522 419.084 422.392 417.921 423.166C401.802 434.842 377.452 435.096 359.48 426.347C335.719 414.838 322.288 393.672 318.089 368.284C315.568 352.996 319.6 347.452 333.198 341.32C339.242 338.639 357.85 336.452 377.357 335.696C378.788 335.617 380.299 335.617 381.723 335.529C384.578 335.442 387.52 335.442 390.375 335.442C407.87 335.442 423.878 336.874 429.834 340.485C438.438 345.822 438.104 358.254 437.985 367.154Z" fill="#2F2667"/>
<path d="M437.985 367.154C437.985 380 436.474 393.943 431.52 405.953C430.338 408.907 428.789 411.7 426.907 414.265L390.383 335.521C407.878 335.521 423.886 336.953 429.842 340.564C438.438 345.822 438.104 358.254 437.985 367.154Z" fill="#5C5CA0"/>
<path d="M421.229 420.565C420.212 421.522 419.116 422.392 417.953 423.166L377.397 335.744C378.828 335.665 380.339 335.665 381.763 335.577L421.229 420.565Z" fill="#5C5CA0"/>
<path d="M252.125 416.786C251.115 417.582 250.026 418.21 248.944 418.886L248.777 418.632L210.225 335.577H214.344L251.902 416.198L252.125 416.786Z" fill="#5C5CA0"/>
<path d="M277.564 368.331C274.876 384.454 268.499 398.811 258.169 410.153L219.72 335.744C238.694 336.587 256.578 338.767 262.368 341.367C269.342 344.549 273.787 347.5 276.141 351.62C278.495 355.74 278.829 360.871 277.564 368.331Z" fill="#5C5CA0"/>
<defs>
<linearGradient id="paint0_linear_58159_13611" x1="0.540063" y1="358.463" x2="606.689" y2="358.463" gradientUnits="userSpaceOnUse">
<stop stop-color="#A076F9"/>
<stop offset="0.51" stop-color="#A076F9"/>
<stop offset="1" stop-color="#AC3FE4"/>
</linearGradient>
<linearGradient id="paint1_linear_58159_13611" x1="0.50016" y1="358.484" x2="606.684" y2="358.484" gradientUnits="userSpaceOnUse">
<stop stop-color="#A076F9"/>
<stop offset="0.51" stop-color="#A076F9"/>
<stop offset="1" stop-color="#AC3FE4"/>
</linearGradient>
</defs>
</svg>
